<svg width="217" height="64" viewBox="0 0 217 64" fill="none" xmlns="http://www.w3.org/2000/svg">
<path d="M169.85 58L182.5 8.2439L189.85 5.2439L175.35 63.2439L169.85 58Z" fill="#B872FF"/>
<path d="M193 55.7587V44.5L209.213 34.8381L193 24.8895V13.7537L216.5 28.7379V40.7335L193 55.7587Z" fill="#B872FF"/>
<path d="M24.1767 55.2562L0.717773 40.1491V28.1945L24.1767 13.2512V24.5099L7.96424 34.1718L24.1767 44.1204V55.2562Z" fill="#B872FF"/>
<path d="M51.3359 55.3516C50.2891 55.3516 49.3359 55.0703 48.4766 54.5078C47.6328 53.9297 46.9609 53 46.4609 51.7188V55H40.25V13.3984H46.4609V22.375C46.8203 21.4531 47.4297 20.7344 48.2891 20.2188C49.1484 19.7031 50.0078 19.4375 50.8672 19.4219C52.7266 19.3906 54.1641 19.8281 55.1797 20.7344C56.1953 21.625 56.8984 22.8672 57.2891 24.4609C57.6953 26.0547 57.8984 27.8828 57.8984 29.9453V44.8281C57.8984 46.8125 57.7031 48.6016 57.3125 50.1953C56.9219 51.7891 56.25 53.0469 55.2969 53.9688C54.3438 54.8906 53.0234 55.3516 51.3359 55.3516ZM49.25 50.3828C50.3281 50.3828 51 49.8672 51.2656 48.8359C51.5312 47.7891 51.6641 46.2578 51.6641 44.2422V29.8516C51.6641 28.7891 51.6094 27.8516 51.5 27.0391C51.4062 26.2266 51.1953 25.5938 50.8672 25.1406C50.5391 24.6719 50.0156 24.4375 49.2969 24.4375C48.6562 24.4375 48.125 24.5938 47.7031 24.9062C47.2812 25.2188 46.9688 25.7656 46.7656 26.5469C46.5625 27.3281 46.4609 28.4219 46.4609 29.8281V44.3125C46.4609 46.25 46.625 47.75 46.9531 48.8125C47.2969 49.8594 48.0625 50.3828 49.25 50.3828ZM63.5703 55V19.8438H69.8281V23.7578C70.2344 22.3984 70.9375 21.3359 71.9375 20.5703C72.9531 19.8047 74.2422 19.4219 75.8047 19.4219C75.8359 19.4219 75.8516 19.6875 75.8516 20.2188C75.8672 20.75 75.875 21.3594 75.875 22.0469C75.875 22.7344 75.875 23.3438 75.875 23.875C75.875 24.4062 75.875 24.6719 75.875 24.6719C75.1562 24.6719 74.375 24.7578 73.5312 24.9297C72.7031 25.1016 71.9453 25.3672 71.2578 25.7266C70.5859 26.0703 70.1094 26.5312 69.8281 27.1094V55H63.5703ZM88.1094 55.4219C86.3438 55.4219 84.8906 55.1406 83.75 54.5781C82.625 54.0156 81.7422 53.2031 81.1016 52.1406C80.4766 51.0781 80.0391 49.8047 79.7891 48.3203C79.5391 46.8203 79.4141 45.1484 79.4141 43.3047V30.2031C79.4141 28.5625 79.5781 27.0781 79.9062 25.75C80.25 24.4219 80.7734 23.2891 81.4766 22.3516C82.1953 21.4141 83.125 20.6953 84.2656 20.1953C85.4062 19.6797 86.7812 19.4219 88.3906 19.4219C90.0312 19.4219 91.3984 19.6719 92.4922 20.1719C93.5859 20.6719 94.4453 21.3984 95.0703 22.3516C95.7109 23.3047 96.1641 24.4531 96.4297 25.7969C96.7109 27.125 96.8516 28.6328 96.8516 30.3203V37.8438H85.6719V44.7578C85.6719 46.4609 85.8047 47.8281 86.0703 48.8594C86.3359 49.8906 87.0625 50.4062 88.25 50.4062C89.0469 50.4062 89.6094 50.1641 89.9375 49.6797C90.2812 49.1953 90.4844 48.5312 90.5469 47.6875C90.625 46.8281 90.6641 45.8516 90.6641 44.7578V41.6641H96.8047V43.5391C96.8047 45.4297 96.6875 47.1094 96.4531 48.5781C96.2344 50.0469 95.8125 51.2891 95.1875 52.3047C94.5781 53.3203 93.7031 54.0938 92.5625 54.625C91.4219 55.1562 89.9375 55.4219 88.1094 55.4219ZM85.6484 34.2109H90.6641V29.7109C90.6641 28.5391 90.6094 27.5547 90.5 26.7578C90.3906 25.9453 90.1719 25.3359 89.8438 24.9297C89.5156 24.5234 89.0156 24.3203 88.3438 24.3203C87.5156 24.3203 86.9062 24.5625 86.5156 25.0469C86.1406 25.5312 85.8984 26.1953 85.7891 27.0391C85.6953 27.8672 85.6484 28.8125 85.6484 29.875V34.2109ZM102.5 55V49.2344H107.773V55H102.5ZM115.32 55L110.234 19.8438H116.094L118.367 38.5469L119.141 46.9609H119.609L120.266 38.5234L122.211 19.8438H128.023L122.938 55H115.32ZM132.289 55V19.8438H138.5V55H132.289ZM132.266 16.6094V11.2188H138.523V16.6094H132.266ZM152.07 55.4453C149.242 55.4453 147.141 54.6406 145.766 53.0312C144.391 51.4219 143.703 48.7891 143.703 45.1328V42.8594H149.539V45.6953C149.539 47.2266 149.727 48.3906 150.102 49.1875C150.477 49.9844 151.086 50.3828 151.93 50.3828C152.742 50.3828 153.344 50.1094 153.734 49.5625C154.125 49.0156 154.32 48.0703 154.32 46.7266C154.32 45.9453 154.203 45.1875 153.969 44.4531C153.75 43.7188 153.398 43 152.914 42.2969C152.445 41.5781 151.836 40.8828 151.086 40.2109L147.922 37.3516C146.469 36.0391 145.383 34.625 144.664 33.1094C143.945 31.5781 143.586 29.8906 143.586 28.0469C143.586 25.0625 144.281 22.8828 145.672 21.5078C147.078 20.1172 149.156 19.4219 151.906 19.4219C153.688 19.4219 155.164 19.7578 156.336 20.4297C157.508 21.0859 158.383 22.1562 158.961 23.6406C159.539 25.125 159.828 27.1172 159.828 29.6172V31.5391H154.273V29.2188C154.273 27.6719 154.094 26.5 153.734 25.7031C153.391 24.9062 152.797 24.5078 151.953 24.5078C151.125 24.5078 150.516 24.7422 150.125 25.2109C149.734 25.6641 149.523 26.4688 149.492 27.625C149.477 28.25 149.555 28.8672 149.727 29.4766C149.898 30.0703 150.164 30.6562 150.523 31.2344C150.898 31.7969 151.383 32.3516 151.977 32.8984L155.305 35.9219C157.055 37.5 158.344 39.1484 159.172 40.8672C160.016 42.5859 160.438 44.4453 160.438 46.4453C160.438 49.3984 159.766 51.6406 158.422 53.1719C157.078 54.6875 154.961 55.4453 152.07 55.4453Z" fill="#FAFAFA"/>
</svg>
